<?xml version="1.0" encoding="UTF-8"?>
<!--
  Agentic Edge — the digital trading floor.

  GitHub-renderable SVG with SMIL animations (no JavaScript, no external CSS).
  Drop into README via:  ![](docs/diagrams/digital-trading-floor.svg)

  For the click-through interactive version (with the "Run a theme" simulator,
  per-agent reasoning panels, and edge-flow highlighting on hover), see the
  GitHub Pages live demo linked in the README.
-->
<svg xmlns="http://www.w3.org/2000/svg" viewBox="0 0 1400 1180" preserveAspectRatio="xMidYMid meet" font-family="-apple-system, Segoe UI, Helvetica, Arial, sans-serif" role="img" aria-label="Agentic Edge — digital trading floor: data room, analyst pod, debate stage, risk committee, portfolio manager, theme ranker, and IBKR paper-trade gateway">
  <defs>
    <filter id="ae-shadow" x="-20%" y="-20%" width="140%" height="140%">
      <feDropShadow dx="0" dy="2" stdDeviation="4" flood-opacity="0.45" flood-color="#000"/>
    </filter>
    <linearGradient id="ae-grad-up" x1="0" x2="0" y1="1" y2="0">
      <stop offset="0%" stop-color="#34d399" stop-opacity="0"/>
      <stop offset="100%" stop-color="#34d399" stop-opacity="0.6"/>
    </linearGradient>
    <linearGradient id="ae-grad-down" x1="0" x2="0" y1="0" y2="1">
      <stop offset="0%" stop-color="#f87171" stop-opacity="0"/>
      <stop offset="100%" stop-color="#f87171" stop-opacity="0.6"/>
    </linearGradient>
    <linearGradient id="ae-grad-rack" x1="0" x2="0" y1="0" y2="1">
      <stop offset="0%" stop-color="#11141b"/>
      <stop offset="100%" stop-color="#0b0d12"/>
    </linearGradient>
    <linearGradient id="ae-grad-brand" x1="0" x2="1" y1="0" y2="0">
      <stop offset="0%" stop-color="#7c5cff"/>
      <stop offset="100%" stop-color="#38bdf8"/>
    </linearGradient>
    <clipPath id="ae-clip-poly"><rect x="10" y="42" width="220" height="14" rx="2"/></clipPath>
    <clipPath id="ae-clip-uw"><rect x="10" y="42" width="220" height="14" rx="2"/></clipPath>
    <clipPath id="ae-clip-fmp"><rect x="10" y="42" width="220" height="14" rx="2"/></clipPath>
    <clipPath id="ae-clip-av"><rect x="10" y="42" width="220" height="14" rx="2"/></clipPath>
    <clipPath id="ae-clip-ib"><rect x="10" y="42" width="220" height="14" rx="2"/></clipPath>
    <clipPath id="ae-clip-news"><rect x="6" y="6" width="184" height="66" rx="2"/></clipPath>
  </defs>

  <!-- Page background — dark to match the live app palette. -->
  <rect width="1400" height="1180" fill="#0b0d12"/>

  <!-- Title row -->
  <text x="40" y="36" font-size="16" font-weight="600" fill="#e7eaf2">Agentic Edge — the digital trading floor</text>
  <text x="40" y="56" font-size="11" fill="#98a0b3">Each agent is a digital employee at their workstation. View source / open the live demo for the click-through version.</text>

  <!-- ================= DATA ROOM ================= -->
  <g transform="translate(40, 80)">
    <rect width="1320" height="120" rx="12" fill="url(#ae-grad-rack)" stroke="#232a3a"/>
    <text x="20" y="26" font-size="11" font-weight="600" fill="#6c7388" letter-spacing="1.2">DATA ROOM · LIVE FEEDS</text>

    <!-- Polygon -->
    <g transform="translate(20, 42)">
      <rect width="240" height="62" rx="8" fill="#0b0d12" stroke="#232a3a"/>
      <circle cx="14" cy="14" r="4" fill="#38bdf8">
        <animate attributeName="opacity" values="1;0.4;1" dur="1.3s" repeatCount="indefinite"/>
      </circle>
      <text x="26" y="18" font-size="12" font-weight="500" fill="#e7eaf2">Polygon</text>
      <text x="26" y="32" font-size="9" fill="#6c7388">OHLCV · options chains</text>
      <g clip-path="url(#ae-clip-poly)">
        <g font-size="9" fill="#7dd3fc" font-family="ui-monospace,monospace">
          <text x="10" y="52">CRDO 84.21 ▲ · LITE 102.4 ▲ · COHR 91.6 ▲ · FN 188.3 ▼ · AAOI 19.2 ▲ · CRDO 84.21 ▲ · LITE 102.4 ▲ · COHR 91.6 ▲ · FN 188.3 ▼ · AAOI 19.2 ▲ · </text>
          <animateTransform attributeName="transform" type="translate" from="0 0" to="-540 0" dur="22s" repeatCount="indefinite"/>
        </g>
      </g>
    </g>
    <!-- UW -->
    <g transform="translate(280, 42)">
      <rect width="240" height="62" rx="8" fill="#0b0d12" stroke="#232a3a"/>
      <circle cx="14" cy="14" r="4" fill="#7c5cff">
        <animate attributeName="opacity" values="1;0.4;1" dur="1.3s" begin="0.2s" repeatCount="indefinite"/>
      </circle>
      <text x="26" y="18" font-size="12" font-weight="500" fill="#e7eaf2">Unusual Whales</text>
      <text x="26" y="32" font-size="9" fill="#6c7388">Flow · gamma · max pain</text>
      <g clip-path="url(#ae-clip-uw)">
        <g font-size="9" fill="#c4b5fd" font-family="ui-monospace,monospace">
          <text x="10" y="52">SWEEP CRDO C95 +$1.2M · WALL LITE C100 · MAX-PAIN COHR 90 · GEX +$420M · SWEEP CRDO C95 +$1.2M · WALL LITE C100 · </text>
          <animateTransform attributeName="transform" type="translate" from="0 0" to="-560 0" dur="24s" repeatCount="indefinite"/>
        </g>
      </g>
    </g>
    <!-- FMP -->
    <g transform="translate(540, 42)">
      <rect width="240" height="62" rx="8" fill="#0b0d12" stroke="#232a3a"/>
      <circle cx="14" cy="14" r="4" fill="#34d399">
        <animate attributeName="opacity" values="1;0.4;1" dur="1.3s" begin="0.4s" repeatCount="indefinite"/>
      </circle>
      <text x="26" y="18" font-size="12" font-weight="500" fill="#e7eaf2">FMP Ultimate</text>
      <text x="26" y="32" font-size="9" fill="#6c7388">Income · balance · cash flow</text>
      <g clip-path="url(#ae-clip-fmp)">
        <g font-size="9" fill="#6ee7b7" font-family="ui-monospace,monospace">
          <text x="10" y="52">CRDO GM 65.2% · ROIC 18% · FCF $124M · NET CASH $310M · CRDO GM 65.2% · ROIC 18% · FCF $124M · NET CASH $310M · </text>
          <animateTransform attributeName="transform" type="translate" from="0 0" to="-580 0" dur="26s" repeatCount="indefinite"/>
        </g>
      </g>
    </g>
    <!-- AlphaVantage -->
    <g transform="translate(800, 42)">
      <rect width="240" height="62" rx="8" fill="#0b0d12" stroke="#232a3a"/>
      <circle cx="14" cy="14" r="4" fill="#fbbf24">
        <animate attributeName="opacity" values="1;0.4;1" dur="1.3s" begin="0.6s" repeatCount="indefinite"/>
      </circle>
      <text x="26" y="18" font-size="12" font-weight="500" fill="#e7eaf2">AlphaVantage</text>
      <text x="26" y="32" font-size="9" fill="#6c7388">Macro · global indicators</text>
      <g clip-path="url(#ae-clip-av)">
        <g font-size="9" fill="#fcd34d" font-family="ui-monospace,monospace">
          <text x="10" y="52">10Y 4.32% · FFR 4.50 · CPI 2.8% · NFP +212K · 10Y 4.32% · FFR 4.50 · CPI 2.8% · NFP +212K · 10Y 4.32% · </text>
          <animateTransform attributeName="transform" type="translate" from="0 0" to="-520 0" dur="20s" repeatCount="indefinite"/>
        </g>
      </g>
    </g>
    <!-- IBKR live -->
    <g transform="translate(1060, 42)">
      <rect width="240" height="62" rx="8" fill="#0b0d12" stroke="#f87171" stroke-width="1.5"/>
      <circle cx="14" cy="14" r="4" fill="#f87171">
        <animate attributeName="opacity" values="1;0.35;1" dur="1.6s" repeatCount="indefinite"/>
      </circle>
      <text x="26" y="18" font-size="12" font-weight="500" fill="#e7eaf2">IBKR <tspan font-size="9" fill="#fca5a5">live</tspan></text>
      <text x="26" y="32" font-size="9" fill="#6c7388">Market data · positions · P&amp;L</text>
      <g clip-path="url(#ae-clip-ib)">
        <g font-size="9" fill="#fca5a5" font-family="ui-monospace,monospace">
          <text x="10" y="52">L1 CRDO BID 84.20×500 ASK 84.22×400 · NAV $1.04M · CASH $312K · L1 CRDO BID 84.20×500 ASK 84.22×400 · </text>
          <animateTransform attributeName="transform" type="translate" from="0 0" to="-560 0" dur="18s" repeatCount="indefinite"/>
        </g>
      </g>
    </g>
  </g>

  <!-- cables -->
  <g stroke="#232a3a" stroke-width="1" fill="none" opacity="0.7">
    <path d="M 160,210 C 160,225 175,230 175,245"/>
    <path d="M 420,210 C 420,225 445,230 445,245"/>
    <path d="M 680,210 C 680,225 715,230 715,245"/>
    <path d="M 940,210 C 940,225 985,230 985,245"/>
    <path d="M 1200,210 C 1200,225 1255,230 1255,245"/>
  </g>

  <!-- ================= ANALYST POD ================= -->
  <g transform="translate(40, 240)">
    <text x="0" y="0" font-size="11" font-weight="600" fill="#6c7388" letter-spacing="1.2">ANALYST POD · DEEPSEEK V4-FLASH</text>

    <!-- Market analyst -->
    <g transform="translate(0, 14)">
      <rect width="252" height="220" rx="10" fill="#161a23" stroke="#232a3a" filter="url(#ae-shadow)"/>
      <rect x="14" y="160" width="224" height="46" rx="3" fill="#1c2230"/>
      <g transform="translate(28, 56)">
        <rect width="92" height="64" rx="5" fill="#0b0d12"/>
        <g stroke-width="2">
          <line x1="14" y1="42" x2="14" y2="55" stroke="#34d399"/><rect x="11" y="44" width="6" height="8" fill="#34d399"/>
          <line x1="26" y1="36" x2="26" y2="50" stroke="#34d399"/><rect x="23" y="38" width="6" height="10" fill="#34d399"/>
          <line x1="38" y1="40" x2="38" y2="58" stroke="#f87171"/><rect x="35" y="42" width="6" height="14" fill="#f87171"/>
          <line x1="50" y1="32" x2="50" y2="46" stroke="#34d399"/><rect x="47" y="34" width="6" height="10" fill="#34d399"/>
          <line x1="62" y1="26" x2="62" y2="42" stroke="#34d399"/><rect x="59" y="28" width="6" height="12" fill="#34d399"/>
          <line x1="74" y1="22" x2="74" y2="38" stroke="#34d399"/><rect x="71" y="24" width="6" height="12" fill="#34d399"/>
        </g>
      </g>
      <g transform="translate(132, 56)">
        <rect width="92" height="64" rx="5" fill="#0b0d12"/>
        <rect x="14" y="40" width="6" height="12" fill="#38bdf8"/><rect x="24" y="36" width="6" height="16" fill="#38bdf8"/>
        <rect x="34" y="30" width="6" height="22" fill="#38bdf8"/><rect x="44" y="34" width="6" height="18" fill="#38bdf8"/>
        <rect x="54" y="28" width="6" height="24" fill="#38bdf8"/><rect x="64" y="20" width="6" height="32" fill="#38bdf8"/>
        <rect x="74" y="16" width="6" height="36" fill="#38bdf8"/>
        <text x="46" y="60" text-anchor="middle" font-size="7" fill="#6c7388">MACD</text>
      </g>
      <g transform="translate(95, 122)">
        <rect x="10" y="22" width="42" height="6" rx="2" fill="#1c2230"/>
        <path d="M 8,32 Q 8,18 31,18 Q 54,18 54,32 L 54,42 L 8,42 Z" fill="#7c5cff"/>
        <circle cx="31" cy="10" r="9" fill="#fef3c7" stroke="#0b0d12" stroke-width="0.5"/>
        <circle cx="27" cy="10" r="3" fill="none" stroke="#0b0d12" stroke-width="0.8"/>
        <circle cx="35" cy="10" r="3" fill="none" stroke="#0b0d12" stroke-width="0.8"/>
        <line x1="30" y1="10" x2="32" y2="10" stroke="#0b0d12" stroke-width="0.8"/>
      </g>
      <text x="126" y="186" text-anchor="middle" font-size="13" font-weight="500" fill="#e7eaf2">Market analyst</text>
      <text x="126" y="200" text-anchor="middle" font-size="10" fill="#98a0b3">Daily/weekly MTF · indicators</text>
    </g>

    <!-- Sentiment analyst -->
    <g transform="translate(270, 14)">
      <rect width="252" height="220" rx="10" fill="#161a23" stroke="#232a3a" filter="url(#ae-shadow)"/>
      <rect x="14" y="160" width="224" height="46" rx="3" fill="#1c2230"/>
      <g transform="translate(118, 102)">
        <g>
          <rect x="-48" y="-42" width="96" height="84" rx="2" fill="#f5f5f0" stroke="#1c2230"/>
          <text x="0" y="-28" text-anchor="middle" font-size="9" font-weight="600" fill="#11141b" font-family="serif">THE MARKET TIMES</text>
          <line x1="-42" y1="-22" x2="42" y2="-22" stroke="#1c2230" stroke-width="0.5"/>
          <text x="0" y="-10" text-anchor="middle" font-size="6" font-weight="600" fill="#11141b">800G demand surges</text>
          <g stroke="#6c7388" stroke-width="0.6">
            <line x1="-40" y1="-2" x2="40" y2="-2"/><line x1="-40" y1="4" x2="40" y2="4"/>
            <line x1="-40" y1="10" x2="40" y2="10"/><line x1="-40" y1="16" x2="12" y2="16"/>
            <line x1="2" y1="22" x2="40" y2="22"/><line x1="-40" y1="28" x2="40" y2="28"/>
          </g>
          <rect x="2" y="-2" width="30" height="18" fill="#e5e7eb"/>
          <polyline points="4,13 10,10 16,6 22,2 28,0" fill="none" stroke="#34d399" stroke-width="1"/>
          <animateTransform attributeName="transform" type="rotate" values="-2;2;-2" dur="4s" repeatCount="indefinite"/>
        </g>
      </g>
      <g transform="translate(95, 122)">
        <rect x="10" y="22" width="42" height="6" rx="2" fill="#1c2230"/>
        <path d="M 8,32 Q 8,18 31,18 Q 54,18 54,32 L 54,42 L 8,42 Z" fill="#f472b6"/>
        <circle cx="31" cy="10" r="9" fill="#fef3c7" stroke="#0b0d12" stroke-width="0.5"/>
        <rect x="-5" y="12" width="9" height="10" rx="1" fill="#6c7388"/>
        <path d="M 4,15 Q 8,15 8,18 Q 8,21 4,21" fill="none" stroke="#6c7388" stroke-width="1"/>
      </g>
      <text x="126" y="186" text-anchor="middle" font-size="13" font-weight="500" fill="#e7eaf2">Sentiment analyst</text>
      <text x="126" y="200" text-anchor="middle" font-size="10" fill="#98a0b3">Newspaper · social · retail mood</text>
    </g>

    <!-- News analyst -->
    <g transform="translate(540, 14)">
      <rect width="252" height="220" rx="10" fill="#161a23" stroke="#232a3a" filter="url(#ae-shadow)"/>
      <rect x="14" y="160" width="224" height="46" rx="3" fill="#1c2230"/>
      <g transform="translate(28, 50)">
        <rect width="196" height="78" rx="5" fill="#0b0d12"/>
        <g clip-path="url(#ae-clip-news)">
          <g font-size="7.5" fill="#cbd5e1" font-family="ui-monospace,monospace">
            <text x="10" y="16">▶ NVDA Q1 beat — AI demand outpacing supply</text>
            <text x="10" y="28" fill="#fbbf24">⚠ Hyperscaler capex revised up 18% for 2026</text>
            <text x="10" y="40">▶ Marvell announces 1.6T DSP roadmap</text>
            <text x="10" y="52" fill="#86efac">✓ Coherent: optical orders +42% YoY</text>
            <text x="10" y="64">▶ Lumentum guides above consensus on AI mix</text>
            <text x="10" y="76">▶ Fed minutes signal patience on cuts</text>
            <text x="10" y="88">▶ Astera Labs adds CXL design wins</text>
            <text x="10" y="100">▶ Credo guides Q2: optical DSP ramp</text>
            <text x="10" y="112">▶ NVDA Q1 beat — AI demand outpacing supply</text>
            <text x="10" y="124" fill="#fbbf24">⚠ Hyperscaler capex revised up 18% for 2026</text>
            <text x="10" y="136">▶ Marvell announces 1.6T DSP roadmap</text>
            <text x="10" y="148" fill="#86efac">✓ Coherent: optical orders +42% YoY</text>
            <animateTransform attributeName="transform" type="translate" from="0 0" to="0 -96" dur="14s" repeatCount="indefinite"/>
          </g>
        </g>
      </g>
      <g transform="translate(95, 122)">
        <rect x="10" y="22" width="42" height="6" rx="2" fill="#1c2230"/>
        <path d="M 8,32 Q 8,18 31,18 Q 54,18 54,32 L 54,42 L 8,42 Z" fill="#38bdf8"/>
        <circle cx="31" cy="10" r="9" fill="#fef3c7" stroke="#0b0d12" stroke-width="0.5"/>
        <path d="M 22,8 Q 22,2 31,2 Q 40,2 40,8" stroke="#0b0d12" stroke-width="1" fill="none"/>
        <rect x="20" y="8" width="3" height="5" rx="1" fill="#0b0d12"/>
        <rect x="39" y="8" width="3" height="5" rx="1" fill="#0b0d12"/>
      </g>
      <text x="126" y="186" text-anchor="middle" font-size="13" font-weight="500" fill="#e7eaf2">News analyst</text>
      <text x="126" y="200" text-anchor="middle" font-size="10" fill="#98a0b3">Sector + macro headlines</text>
    </g>

    <!-- Fundamentals analyst -->
    <g transform="translate(810, 14)">
      <rect width="252" height="220" rx="10" fill="#161a23" stroke="#232a3a" filter="url(#ae-shadow)"/>
      <rect x="14" y="160" width="224" height="46" rx="3" fill="#1c2230"/>
      <g transform="translate(40, 60)">
        <rect width="88" height="84" rx="2" fill="#fdf6e3" stroke="#a16207"/>
        <line x1="44" y1="0" x2="44" y2="84" stroke="#a16207" stroke-width="0.5"/>
        <text x="6" y="12" font-size="6" fill="#11141b" font-weight="600">INCOME</text>
        <text x="48" y="12" font-size="6" fill="#11141b" font-weight="600">CASH FLOW</text>
        <g font-size="6" fill="#11141b" font-family="ui-monospace,monospace">
          <text x="6" y="24">Rev   $620M</text><text x="6" y="34">GM    65.2%</text><text x="6" y="44">Op    $98M</text><text x="6" y="54">NI    $74M</text>
          <text x="48" y="24">CFO   $148M</text><text x="48" y="34">Capx  -$24M</text><text x="48" y="44">FCF   $124M</text>
          <text x="48" y="54" fill="#16a34a">FCF Y 3.4%
            <animate attributeName="opacity" values="1;0.35;1" dur="1.4s" repeatCount="indefinite"/>
          </text>
        </g>
        <g transform="translate(58,58)">
          <circle cx="0" cy="0" r="9" fill="rgba(56,189,248,0.18)" stroke="#38bdf8" stroke-width="1.4"/>
          <line x1="6" y1="6" x2="14" y2="14" stroke="#38bdf8" stroke-width="1.6" stroke-linecap="round"/>
        </g>
      </g>
      <g transform="translate(140, 70)">
        <rect width="60" height="74" rx="4" fill="#0b0d12"/>
        <rect x="6" y="6" width="48" height="14" rx="2" fill="#11141b" stroke="#34d399"/>
        <text x="50" y="17" text-anchor="end" font-size="9" font-weight="500" fill="#34d399" font-family="ui-monospace,monospace">12,400
          <animate attributeName="opacity" values="1;0.35;1" dur="1.4s" begin="0.7s" repeatCount="indefinite"/>
        </text>
        <g fill="#1c2230">
          <rect x="6" y="24" width="10" height="10" rx="1.5"/><rect x="18" y="24" width="10" height="10" rx="1.5"/><rect x="30" y="24" width="10" height="10" rx="1.5"/><rect x="42" y="24" width="12" height="10" rx="1.5" fill="#7c5cff"/>
          <rect x="6" y="36" width="10" height="10" rx="1.5"/><rect x="18" y="36" width="10" height="10" rx="1.5"/><rect x="30" y="36" width="10" height="10" rx="1.5"/><rect x="42" y="36" width="12" height="10" rx="1.5" fill="#7c5cff"/>
          <rect x="6" y="48" width="10" height="10" rx="1.5"/><rect x="18" y="48" width="10" height="10" rx="1.5"/><rect x="30" y="48" width="10" height="10" rx="1.5"/><rect x="42" y="48" width="12" height="22" rx="1.5" fill="#34d399"/>
          <rect x="6" y="60" width="22" height="10" rx="1.5"/><rect x="30" y="60" width="10" height="10" rx="1.5"/>
        </g>
      </g>
      <g transform="translate(95, 122)">
        <rect x="10" y="22" width="42" height="6" rx="2" fill="#1c2230"/>
        <path d="M 8,32 Q 8,18 31,18 Q 54,18 54,32 L 54,42 L 8,42 Z" fill="#34d399"/>
        <circle cx="31" cy="10" r="9" fill="#fef3c7" stroke="#0b0d12" stroke-width="0.5"/>
        <rect x="22" y="8" width="18" height="3" rx="1" fill="#0b0d12"/>
      </g>
      <text x="126" y="186" text-anchor="middle" font-size="13" font-weight="500" fill="#e7eaf2">Fundamentals analyst</text>
      <text x="126" y="200" text-anchor="middle" font-size="10" fill="#98a0b3">Margins · FCF · leverage</text>
    </g>

    <!-- Options flow analyst -->
    <g transform="translate(1080, 14)">
      <rect width="252" height="220" rx="10" fill="#161a23" stroke="#232a3a" filter="url(#ae-shadow)"/>
      <rect x="14" y="160" width="224" height="46" rx="3" fill="#1c2230"/>
      <g transform="translate(28, 50)">
        <rect width="92" height="78" rx="5" fill="#0b0d12"/>
        <text x="6" y="12" font-size="7" fill="#c4b5fd">GEX curve</text>
        <line x1="6" y1="40" x2="86" y2="40" stroke="#1c2230" stroke-width="0.5"/>
        <path d="M 6,60 Q 16,58 22,52 Q 28,38 36,28 Q 44,20 52,28 Q 60,38 66,28 Q 72,20 80,42 Q 84,58 86,68" fill="none" stroke="#7c5cff" stroke-width="1.6" stroke-dasharray="200" stroke-dashoffset="200">
          <animate attributeName="stroke-dashoffset" values="200;0;200" dur="4.8s" repeatCount="indefinite"/>
        </path>
        <line x1="52" y1="14" x2="52" y2="68" stroke="#fbbf24" stroke-width="0.6" stroke-dasharray="2,2"/>
        <text x="52" y="74" text-anchor="middle" font-size="6" fill="#fbbf24">95</text>
      </g>
      <g transform="translate(132, 50)">
        <rect width="92" height="78" rx="5" fill="#0b0d12"/>
        <text x="6" y="10" font-size="6" fill="#6c7388">Strike   IV   OI   Vol</text>
        <g font-size="6" fill="#cbd5e1" font-family="ui-monospace,monospace">
          <text x="6" y="20">82C  38%  4.1k  912</text>
          <text x="6" y="30">85C  41%  6.3k  1.4k</text>
          <text x="6" y="40" fill="#fbbf24">90C  44%  9.8k  2.1k</text>
          <text x="6" y="50" fill="#fb923c">95C  48%  12k   3.4k ★</text>
          <text x="6" y="60">100C 52%  7.2k  890</text>
          <text x="6" y="70">105C 56%  3.4k  220</text>
        </g>
      </g>
      <g transform="translate(95, 122)">
        <rect x="10" y="22" width="42" height="6" rx="2" fill="#1c2230"/>
        <path d="M 8,32 Q 8,18 31,18 Q 54,18 54,32 L 54,42 L 8,42 Z" fill="#a78bfa"/>
        <circle cx="31" cy="10" r="9" fill="#fef3c7" stroke="#0b0d12" stroke-width="0.5"/>
        <path d="M 42,10 L 44,8 L 43,12 L 45,10" fill="#fbbf24" stroke="#fbbf24" stroke-width="0.5"/>
      </g>
      <text x="126" y="186" text-anchor="middle" font-size="13" font-weight="500" fill="#e7eaf2">Options flow analyst</text>
      <text x="126" y="200" text-anchor="middle" font-size="10" fill="#98a0b3">Gamma · max pain · sweeps</text>
    </g>
  </g>

  <!-- ================= DEBATE STAGE ================= -->
  <g transform="translate(40, 510)">
    <text x="0" y="0" font-size="11" font-weight="600" fill="#6c7388" letter-spacing="1.2">DEBATE STAGE · DEEPSEEK V4-PRO · DIALECTICAL COLLABORATION</text>

    <!-- Bull -->
    <g transform="translate(0, 14)">
      <rect width="380" height="220" rx="10" fill="#161a23" stroke="#232a3a" filter="url(#ae-shadow)"/>
      <g transform="translate(14, 14)" opacity="0.22">
        <path d="M 0,180 L 70,150 L 140,120 L 210,100 L 280,70 L 352,40" stroke="#34d399" stroke-width="3" fill="none"/>
        <path d="M 0,180 L 70,150 L 140,120 L 210,100 L 280,70 L 352,40 L 352,180 Z" fill="url(#ae-grad-up)"/>
      </g>
      <g transform="translate(150, 70)">
        <rect x="-30" y="38" width="80" height="60" rx="4" fill="#1c2230"/>
        <rect x="-26" y="42" width="72" height="54" rx="3" fill="#232a3a"/>
        <rect x="0" y="56" width="40" height="20" rx="2" fill="#34d399"/>
        <text x="20" y="70" text-anchor="middle" font-size="9" font-weight="700" fill="#0b0d12">BULL</text>
        <g transform="translate(-2, -8)">
          <path d="M 0,32 Q 0,18 24,18 Q 48,18 48,32 L 48,42 L 0,42 Z" fill="#34d399"/>
          <circle cx="24" cy="10" r="9" fill="#fef3c7" stroke="#0b0d12" stroke-width="0.5"/>
          <path d="M 38,25 L 56,8 L 60,12 L 42,29 Z" fill="#fef3c7" stroke="#0b0d12" stroke-width="0.5"/>
          <circle cx="58" cy="6" r="4" fill="#34d399"/>
          <text x="58" y="9" text-anchor="middle" font-size="6" fill="#0b0d12">↑</text>
        </g>
        <g transform="translate(60, -38)">
          <rect width="180" height="38" rx="6" fill="#11141b" stroke="#34d399"/>
          <path d="M 8,38 L 4,46 L 18,38 Z" fill="#11141b" stroke="#34d399"/>
          <text x="10" y="14" font-size="8.5" fill="#6ee7b7">"CRDO is the cleanest 800G play."</text>
          <text x="10" y="26" font-size="8.5" fill="#6ee7b7">Flow + clean chart + quality FCF.</text>
        </g>
      </g>
      <text x="190" y="186" text-anchor="middle" font-size="13" font-weight="500" fill="#e7eaf2">Bull researcher</text>
      <text x="190" y="200" text-anchor="middle" font-size="10" fill="#98a0b3">Long thesis advocate · V4-Pro</text>
    </g>

    <!-- Research manager -->
    <g transform="translate(395, 14)">
      <rect width="240" height="220" rx="10" fill="#161a23" stroke="#232a3a" filter="url(#ae-shadow)"/>
      <g transform="translate(50, 60)">
        <rect x="0" y="50" width="140" height="40" rx="3" fill="#0b0d12"/>
        <rect x="6" y="56" width="128" height="28" rx="2" fill="#1c2230"/>
        <rect x="40" y="64" width="60" height="14" rx="1" fill="#7c5cff"/>
        <text x="70" y="74" text-anchor="middle" font-size="8" font-weight="600" fill="#0b0d12">RESEARCH MGR</text>
        <g transform="translate(46, 0)">
          <path d="M 0,32 Q 0,18 24,18 Q 48,18 48,32 L 48,50 L 0,50 Z" fill="#7c5cff"/>
          <circle cx="24" cy="10" r="9" fill="#fef3c7" stroke="#0b0d12" stroke-width="0.5"/>
          <g transform="translate(50, 24)">
            <rect width="14" height="6" rx="1" fill="#a16207"/>
            <rect x="14" y="-1" width="3" height="8" rx="1" fill="#a16207"/>
          </g>
        </g>
        <g transform="translate(-30, 96)">
          <rect width="200" height="32" rx="4" fill="#11141b" stroke="#7c5cff"/>
          <text x="10" y="14" font-size="9" font-weight="600" fill="#c4b5fd">DECISION: BUY · Conviction 4/5</text>
          <text x="10" y="25" font-size="8" fill="#a78bfa">Bull case carries; Bear tail in sizing.</text>
        </g>
      </g>
      <text x="120" y="186" text-anchor="middle" font-size="13" font-weight="500" fill="#e7eaf2">Research manager</text>
      <text x="120" y="200" text-anchor="middle" font-size="10" fill="#98a0b3">Synthesis + conviction · V4-Pro</text>
    </g>

    <!-- Bear -->
    <g transform="translate(650, 14)">
      <rect width="380" height="220" rx="10" fill="#161a23" stroke="#232a3a" filter="url(#ae-shadow)"/>
      <g transform="translate(14, 14)" opacity="0.22">
        <path d="M 0,40 L 70,70 L 140,90 L 210,110 L 280,140 L 352,170" stroke="#f87171" stroke-width="3" fill="none"/>
        <path d="M 0,40 L 70,70 L 140,90 L 210,110 L 280,140 L 352,170 L 352,180 L 0,180 Z" fill="url(#ae-grad-down)"/>
      </g>
      <g transform="translate(170, 70)">
        <rect x="-30" y="38" width="80" height="60" rx="4" fill="#1c2230"/>
        <rect x="-26" y="42" width="72" height="54" rx="3" fill="#232a3a"/>
        <rect x="0" y="56" width="40" height="20" rx="2" fill="#f87171"/>
        <text x="20" y="70" text-anchor="middle" font-size="9" font-weight="700" fill="#0b0d12">BEAR</text>
        <g transform="translate(-2, -8)">
          <path d="M 0,32 Q 0,18 24,18 Q 48,18 48,32 L 48,42 L 0,42 Z" fill="#f87171"/>
          <circle cx="24" cy="10" r="9" fill="#fef3c7" stroke="#0b0d12" stroke-width="0.5"/>
          <path d="M 38,25 L 56,42 L 60,38 L 42,21 Z" fill="#fef3c7" stroke="#0b0d12" stroke-width="0.5"/>
          <circle cx="58" cy="44" r="4" fill="#f87171"/>
          <text x="58" y="47" text-anchor="middle" font-size="6" fill="#0b0d12">↓</text>
        </g>
        <g transform="translate(-220, -38)">
          <rect width="200" height="38" rx="6" fill="#11141b" stroke="#f87171"/>
          <path d="M 184,38 L 188,46 L 174,38 Z" fill="#11141b" stroke="#f87171"/>
          <text x="10" y="14" font-size="8.5" fill="#fca5a5">"Crowded. Gamma flips below 78."</text>
          <text x="10" y="26" font-size="8.5" fill="#fca5a5">Stops cascade if call wall breaks.</text>
        </g>
      </g>
      <text x="190" y="186" text-anchor="middle" font-size="13" font-weight="500" fill="#e7eaf2">Bear researcher</text>
      <text x="190" y="200" text-anchor="middle" font-size="10" fill="#98a0b3">Short thesis advocate · V4-Pro</text>
    </g>

    <!-- Trader -->
    <g transform="translate(1050, 14)">
      <rect width="280" height="220" rx="10" fill="#161a23" stroke="#232a3a" filter="url(#ae-shadow)"/>
      <g transform="translate(40, 60)">
        <rect width="200" height="84" rx="4" fill="#0b0d12" stroke="#7c5cff"/>
        <text x="100" y="14" text-anchor="middle" font-size="9" font-weight="600" fill="#c4b5fd" letter-spacing="0.6">ORDER TICKET</text>
        <line x1="6" y1="20" x2="194" y2="20" stroke="#7c5cff" stroke-width="0.5" stroke-dasharray="2,2"/>
        <g font-size="8" fill="#cbd5e1" font-family="ui-monospace,monospace">
          <text x="10" y="32">Symbol</text> <text x="190" y="32" text-anchor="end" font-weight="600" fill="#e7eaf2">CRDO</text>
          <text x="10" y="44">Side</text>   <text x="190" y="44" text-anchor="end" fill="#34d399" font-weight="600">BUY 1.2% NAV</text>
          <text x="10" y="56">Entry</text>  <text x="190" y="56" text-anchor="end">$84 – $86</text>
          <text x="10" y="68">Stop</text>   <text x="190" y="68" text-anchor="end" fill="#f87171">$76</text>
          <text x="10" y="80">Target</text> <text x="190" y="80" text-anchor="end" fill="#34d399">$102 (R:R 2.5:1)</text>
        </g>
      </g>
      <g transform="translate(116, 122)">
        <rect x="10" y="22" width="42" height="6" rx="2" fill="#1c2230"/>
        <path d="M 8,32 Q 8,18 31,18 Q 54,18 54,32 L 54,42 L 8,42 Z" fill="#fbbf24"/>
        <circle cx="31" cy="10" r="9" fill="#fef3c7" stroke="#0b0d12" stroke-width="0.5"/>
      </g>
      <text x="140" y="186" text-anchor="middle" font-size="13" font-weight="500" fill="#e7eaf2">Trader</text>
      <text x="140" y="200" text-anchor="middle" font-size="10" fill="#98a0b3">Sizing · entry · stop · target</text>
    </g>
  </g>

  <!-- ================= RISK + PM ================= -->
  <g transform="translate(40, 770)">
    <text x="0" y="0" font-size="11" font-weight="600" fill="#6c7388" letter-spacing="1.2">RISK COMMITTEE + PORTFOLIO MANAGER · V4-PRO</text>

    <!-- Risk -->
    <g transform="translate(0, 14)">
      <rect width="800" height="200" rx="10" fill="#161a23" stroke="#232a3a" filter="url(#ae-shadow)"/>
      <ellipse cx="400" cy="110" rx="180" ry="50" fill="#1c2230"/>
      <ellipse cx="400" cy="105" rx="180" ry="50" fill="#232a3a" stroke="#384155"/>
      <g transform="translate(180, 80)">
        <path d="M 0,32 Q 0,18 24,18 Q 48,18 48,32 L 48,46 L 0,46 Z" fill="#fb7185"/>
        <circle cx="24" cy="10" r="9" fill="#fef3c7" stroke="#0b0d12" stroke-width="0.5"/>
        <text x="24" y="58" text-anchor="middle" font-size="9" font-weight="600" fill="#e7eaf2">Aggressive</text>
        <g transform="translate(-50, -42)">
          <rect width="120" height="30" rx="6" fill="#11141b" stroke="#fb7185"/>
          <path d="M 56,30 L 60,38 L 50,30 Z" fill="#11141b" stroke="#fb7185"/>
          <text x="8" y="13" font-size="8" fill="#fda4af">"Push to 1.5%, alignment is</text>
          <text x="8" y="24" font-size="8" fill="#fda4af">strong across all axes."</text>
        </g>
      </g>
      <g transform="translate(376, 60)">
        <path d="M 0,32 Q 0,18 24,18 Q 48,18 48,32 L 48,46 L 0,46 Z" fill="#a78bfa"/>
        <circle cx="24" cy="10" r="9" fill="#fef3c7" stroke="#0b0d12" stroke-width="0.5"/>
        <text x="24" y="58" text-anchor="middle" font-size="9" font-weight="600" fill="#e7eaf2">Neutral</text>
        <g transform="translate(-50, -42)">
          <rect width="148" height="30" rx="6" fill="#11141b" stroke="#a78bfa"/>
          <path d="M 70,30 L 74,38 L 64,30 Z" fill="#11141b" stroke="#a78bfa"/>
          <text x="8" y="13" font-size="8" fill="#c4b5fd">"1.0%. Theme overlap with LITE</text>
          <text x="8" y="24" font-size="8" fill="#c4b5fd">already in the book — trim."</text>
        </g>
      </g>
      <g transform="translate(572, 80)">
        <path d="M 0,32 Q 0,18 24,18 Q 48,18 48,32 L 48,46 L 0,46 Z" fill="#38bdf8"/>
        <circle cx="24" cy="10" r="9" fill="#fef3c7" stroke="#0b0d12" stroke-width="0.5"/>
        <text x="24" y="58" text-anchor="middle" font-size="9" font-weight="600" fill="#e7eaf2">Conservative</text>
        <g transform="translate(-50, -42)">
          <rect width="124" height="30" rx="6" fill="#11141b" stroke="#38bdf8"/>
          <path d="M 56,30 L 60,38 L 50,30 Z" fill="#11141b" stroke="#38bdf8"/>
          <text x="8" y="13" font-size="8" fill="#7dd3fc">"Liquidity tail at $76. Tighten</text>
          <text x="8" y="24" font-size="8" fill="#7dd3fc">stop, size to 0.8% max."</text>
        </g>
      </g>
      <text x="400" y="186" text-anchor="middle" font-size="11" fill="#98a0b3">Risk debate · three voices argue position size before the PM signs</text>
    </g>

    <!-- PM -->
    <g transform="translate(820, 14)">
      <rect width="500" height="200" rx="10" fill="#161a23" stroke="#232a3a" filter="url(#ae-shadow)"/>
      <rect x="60" y="120" width="380" height="40" rx="3" fill="#0b0d12"/>
      <rect x="64" y="124" width="372" height="32" rx="2" fill="#1c2230"/>
      <g transform="translate(60, 30)">
        <rect width="200" height="80" rx="6" fill="#0b0d12" stroke="#1c2230"/>
        <text x="10" y="14" font-size="8" fill="#a3e635" letter-spacing="0.5">PORTFOLIO · NAV</text>
        <text x="10" y="34" font-size="20" font-weight="500" fill="#a3e635" font-family="ui-monospace,monospace">$1.04M</text>
        <text x="10" y="48" font-size="8" fill="#86efac">+18.4% YTD</text>
        <text x="10" y="62" font-size="7" fill="#6c7388">Theme exposure: 12.6% optical</text>
        <text x="10" y="74" font-size="7" fill="#6c7388">Cash: $312K · Margin: 0%</text>
      </g>
      <g transform="translate(280, 40)">
        <rect width="160" height="70" rx="6" fill="#11141b" stroke="#34d399" stroke-width="1.5"/>
        <text x="80" y="22" text-anchor="middle" font-size="11" font-weight="600" fill="#34d399">APPROVED</text>
        <text x="80" y="38" text-anchor="middle" font-size="9" fill="#6ee7b7">CRDO long · 1.0% NAV</text>
        <text x="80" y="52" text-anchor="middle" font-size="8" fill="#86efac">stop $76 · target $102</text>
        <text x="80" y="64" text-anchor="middle" font-size="7" fill="#a7f3d0">— Portfolio Manager</text>
      </g>
      <g transform="translate(220, 88)">
        <path d="M 0,32 Q 0,18 24,18 Q 48,18 48,32 L 48,42 L 0,42 Z" fill="#7c5cff"/>
        <circle cx="24" cy="10" r="9" fill="#fef3c7" stroke="#0b0d12" stroke-width="0.5"/>
        <path d="M 22,18 L 26,18 L 28,32 L 24,38 L 20,32 Z" fill="#0b0d12"/>
      </g>
      <text x="250" y="186" text-anchor="middle" font-size="13" font-weight="500" fill="#e7eaf2">Portfolio manager</text>
      <text x="250" y="200" text-anchor="middle" font-size="10" fill="#98a0b3">Final approve · size · book</text>
    </g>
  </g>

  <!-- ================= OUTPUT ================= -->
  <g transform="translate(40, 1010)">
    <text x="0" y="0" font-size="11" font-weight="600" fill="#6c7388" letter-spacing="1.2">OUTPUT · RANKED CANDIDATES + EXECUTION</text>

    <!-- Theme ranker -->
    <g transform="translate(0, 14)">
      <rect width="800" height="150" rx="10" fill="#161a23" stroke="#232a3a" filter="url(#ae-shadow)"/>
      <rect x="120" y="14" width="660" height="124" rx="5" fill="#0b0d12" stroke="#232a3a"/>
      <text x="138" y="32" font-size="11" font-weight="600" fill="#e7eaf2">"BEST POSITIONED" — Optical 800G/1.6T</text>
      <text x="138" y="46" font-size="8" fill="#98a0b3">Composite weights: 40% MTF · 30% options · 30% thesis fit</text>
      <g font-family="ui-monospace,monospace" font-size="11">
        <g transform="translate(138, 60)">
          <text x="0" y="0" fill="#e7eaf2" font-weight="500">1.</text>
          <text x="20" y="0" fill="#e7eaf2" font-weight="500">CRDO</text>
          <rect x="80" y="-9" width="380" height="11" rx="3" fill="#1c2230"/>
          <rect x="80" y="-9" height="11" rx="3" fill="url(#ae-grad-brand)" width="0">
            <animate attributeName="width" from="0" to="350" dur="1.5s" begin="0.2s" fill="freeze"/>
          </rect>
          <text x="466" y="0" fill="#c4b5fd" font-weight="500">9.2</text>
          <text x="510" y="0" font-size="8" fill="#98a0b3">MTF 9.1 · OPT 9.4 · FIT 9.0</text>
        </g>
        <g transform="translate(138, 78)">
          <text x="0" y="0" fill="#e7eaf2" font-weight="500">2.</text>
          <text x="20" y="0" fill="#e7eaf2" font-weight="500">LITE</text>
          <rect x="80" y="-9" width="380" height="11" rx="3" fill="#1c2230"/>
          <rect x="80" y="-9" height="11" rx="3" fill="url(#ae-grad-brand)" width="0">
            <animate attributeName="width" from="0" to="330" dur="1.5s" begin="0.5s" fill="freeze"/>
          </rect>
          <text x="466" y="0" fill="#c4b5fd" font-weight="500">8.7</text>
          <text x="510" y="0" font-size="8" fill="#98a0b3">MTF 8.6 · OPT 9.0 · FIT 8.7</text>
        </g>
        <g transform="translate(138, 96)">
          <text x="0" y="0" fill="#e7eaf2" font-weight="500">3.</text>
          <text x="20" y="0" fill="#e7eaf2" font-weight="500">COHR</text>
          <rect x="80" y="-9" width="380" height="11" rx="3" fill="#1c2230"/>
          <rect x="80" y="-9" height="11" rx="3" fill="url(#ae-grad-brand)" width="0">
            <animate attributeName="width" from="0" to="308" dur="1.5s" begin="0.8s" fill="freeze"/>
          </rect>
          <text x="466" y="0" fill="#c4b5fd" font-weight="500">8.1</text>
          <text x="510" y="0" font-size="8" fill="#98a0b3">MTF 7.9 · OPT 8.4 · FIT 8.2</text>
        </g>
        <g transform="translate(138, 114)">
          <text x="0" y="0" fill="#98a0b3">4.</text>
          <text x="20" y="0" fill="#98a0b3">FN</text>
          <rect x="80" y="-9" width="380" height="11" rx="3" fill="#1c2230"/>
          <rect x="80" y="-9" height="11" rx="3" fill="#a78bfa" width="0">
            <animate attributeName="width" from="0" to="280" dur="1.5s" begin="1.1s" fill="freeze"/>
          </rect>
          <text x="466" y="0" fill="#a78bfa">7.4</text>
          <text x="510" y="0" font-size="8" fill="#6c7388">MTF 7.0 · OPT 7.6 · FIT 7.7</text>
        </g>
        <g transform="translate(138, 132)">
          <text x="0" y="0" fill="#6c7388">5.</text>
          <text x="20" y="0" fill="#6c7388">AAOI</text>
          <rect x="80" y="-9" width="380" height="11" rx="3" fill="#1c2230"/>
          <rect x="80" y="-9" height="11" rx="3" fill="#384155" width="0">
            <animate attributeName="width" from="0" to="234" dur="1.5s" begin="1.4s" fill="freeze"/>
          </rect>
          <text x="466" y="0" fill="#6c7388">6.2</text>
          <text x="510" y="0" font-size="8" fill="#6c7388">underweight — execution risk</text>
        </g>
      </g>
      <g transform="translate(40, 50)">
        <path d="M 0,32 Q 0,18 24,18 Q 48,18 48,32 L 48,42 L 0,42 Z" fill="#34d399"/>
        <circle cx="24" cy="10" r="9" fill="#fef3c7" stroke="#0b0d12" stroke-width="0.5"/>
        <rect x="46" y="12" width="14" height="3" rx="0.5" fill="#0b0d12" transform="rotate(-25 53 13)"/>
        <text x="24" y="62" text-anchor="middle" font-size="9" fill="#e7eaf2">Theme ranker</text>
      </g>
    </g>

    <!-- IBKR paper -->
    <g transform="translate(820, 14)">
      <rect width="500" height="150" rx="10" fill="#161a23" stroke="#232a3a" filter="url(#ae-shadow)"/>
      <g transform="translate(60, 14)">
        <rect width="180" height="124" rx="4" fill="#0b0d12" stroke="#232a3a"/>
        <rect x="6" y="6" width="168" height="112" rx="3" fill="#11141b"/>
        <rect x="22" y="20" width="136" height="60" rx="2" fill="#1c2230" opacity="0.6"/>
        <text x="90" y="44" text-anchor="middle" font-size="11" font-weight="600" fill="#e7eaf2">PAPER</text>
        <text x="90" y="60" text-anchor="middle" font-size="9" font-weight="500" fill="#98a0b3">TRADING ONLY</text>
        <rect x="158" y="68" width="12" height="4" rx="2" fill="#fbbf24"/>
        <rect x="36" y="92" width="108" height="20" rx="3" fill="#f87171"/>
        <text x="90" y="106" text-anchor="middle" font-size="11" font-weight="600" fill="#0b0d12">IBKR</text>
        <circle cx="22" cy="100" r="4" fill="#34d399">
          <animate attributeName="opacity" values="1;0.35;1" dur="1.6s" repeatCount="indefinite"/>
        </circle>
        <text x="22" y="120" text-anchor="middle" font-size="6" fill="#6c7388">READY</text>
      </g>
      <g transform="translate(260, 30)">
        <rect width="220" height="100" rx="4" fill="#0b0d12" stroke="#232a3a"/>
        <text x="10" y="14" font-size="9" font-weight="600" fill="#e7eaf2" letter-spacing="0.6">EXECUTION AUDIT LOG</text>
        <line x1="6" y1="20" x2="214" y2="20" stroke="#232a3a" stroke-dasharray="2,2"/>
        <g font-size="7.5" fill="#cbd5e1" font-family="ui-monospace,monospace">
          <text x="10" y="32">12:14:08  TradeIntent received</text>
          <text x="10" y="44">12:14:08  whatIfOrder previewed ✓</text>
          <text x="10" y="56" fill="#34d399">12:14:08  Order placed: BUY CRDO 100</text>
          <text x="10" y="68">12:14:09  IBKR order_id 8821, perm 4419</text>
          <text x="10" y="80">12:14:09  Account D-prefix verified</text>
          <text x="10" y="92" fill="#f87171" font-weight="600">      Live mode → BLOCKED</text>
        </g>
      </g>
      <text x="250" y="186" text-anchor="middle" font-size="13" font-weight="500" fill="#e7eaf2">IBKR · paper-trade gateway</text>
      <text x="250" y="200" text-anchor="middle" font-size="10" fill="#98a0b3">Hard-gated: env=paper AND account D-prefix</text>
    </g>
  </g>
</svg>
